# xmcd
#
# Track frame offsets:
# 151
# 14276
# 30589
# 37902
# 52213
# 65380
# 80535
# 102384
# 121273
# 145608
# 160603
# 173316
# 190085
# 204026
# 224225
# 240310
# 258209
# 278426
# 296927
#
# Disc length: 4250 seconds
#
#
# Revision: 0
# Processed by: cddbd v1.5.2PL0 Copyright (c) Steve Scherf et al.
# Submitted via: FreeRIP 2.951 
#
DISCID=fd109813
DTITLE=S變態少女S - S變態少女S
DYEAR=2006
DGENRE=Alt. Rock
TTITLE0=我要告訴你一件事
TTITLE1=沙漠
TTITLE2=龍捲風
TTITLE3=變態少女想人記
TTITLE4=死者的呼喚
TTITLE5=我討厭你
TTITLE6=痛苦的沉默
TTITLE7=愛不持久
TTITLE8=愛妳愛到死
TTITLE9=名犬大大
TTITLE10=無力
TTITLE11=姊妹們的聚會
TTITLE12=透明(梁詠琪)
TTITLE13=情歌手(彭佳慧)
TTITLE14=戀戀真情(蘇慧倫)
TTITLE15=天天說愛我(川島茉樹代)
TTITLE16=說真的(容祖兒)
TTITLE17=紙飛機(林憶蓮)
TTITLE18=她(黃小琥)
EXTD=
EXTT0=
EXTT1=
EXTT2=
EXTT3=
EXTT4=
EXTT5=
EXTT6=
EXTT7=
EXTT8=
EXTT9=
EXTT10=
EXTT11=
EXTT12=
EXTT13=
EXTT14=
EXTT15=
EXTT16=
EXTT17=
EXTT18=
PLAYORDER=
